# xmcd CD database file
#
# Track frame offsets:
#	150
#	12166
#	24900
#	42063
#	57374
#	71278
#	84182
#	96138
#	107956
#	120749
#	133075
#	143626
#	154000
#	167522
#	180066
#
# Disc length: 2566 seconds
#
# Revision: 0
# Processed by: cddbd v1.5.1PL0 Copyright (c) Steve Scherf et al.
# Submitted via: NeoAudio 9.9.9
#
DISCID=ad0a040f
DTITLE=Hal Leonard - Best of Discovery Jazz
DYEAR=2001
DGENRE=Jazz
TTITLE0=Practice - Mood Indigo 
TTITLE1=Practice - April In Paris
TTITLE2=Practice - Blues Machine
TTITLE3=Practice - Georgia On My Mind
TTITLE4=Practice - Harlem Nocturne
TTITLE5=Practice - I Heard It Through The Grapevine
TTITLE6=Practice - It Don't Mean A Thing (If It Don't Have That Swing)
TTITLE7=Practice - Mission: Impossible Theme
TTITLE8=Practice - Moten Swing 
TTITLE9=Practice - On Broadway
TTITLE10=Practice - Rock Around The Clock
TTITLE11=Practice - A String Of Pearls
TTITLE12=Practice - T.W.A. (Trumpets With Attitude)
TTITLE13=Practice - Tangerine
TTITLE14=Practice - Tequila 
EXTD=YEAR: 2001
EXTT0=
EXTT1=
EXTT2=
EXTT3=
EXTT4=
EXTT5=
EXTT6=
EXTT7=
EXTT8=
EXTT9=
EXTT10=
EXTT11=
EXTT12=
EXTT13=
EXTT14=
PLAYORDER=
